Coordinates
version=1
nRows=17
nColumns=38
inDegrees=no

Units are S.I. units (second, meters, Newtons, ...)
If the header above contains a line with 'inDegrees', this indicates whether rotational values are in degrees (yes) or radians (no).

endheader
time	pelvis_tilt	pelvis_list	pelvis_rotation	pelvis_tx	pelvis_ty	pelvis_tz	hip_flexion_r	hip_adduction_r	hip_rotation_r	knee_angle_r	ankle_angle_r	subtalar_angle_r	mtp_angle_r	hip_flexion_l	hip_adduction_l	hip_rotation_l	knee_angle_l	ankle_angle_l	subtalar_angle_l	mtp_angle_l	lumbar_extension	lumbar_bending	lumbar_rotation	arm_flex_r	arm_add_r	arm_rot_r	elbow_flex_r	pro_sup_r	wrist_flex_r	wrist_dev_r	arm_flex_l	arm_add_l	arm_rot_l	elbow_flex_l	pro_sup_l	wrist_flex_l	wrist_dev_l
1.9	-0.222425	1.43688	-1.22998	0.85783	-0.235053	0.94106	0.363385	-0.104241	-0.188998	0.752236	0.127662	0	0	-0.293242	0.0333841	-0.00699383	0	0.112763	0	0	-0.242173	-0.0115021	-0.252193	-0.0375971	-0.183795	0.0258829	0.410417	1.1189	0	0	-0.0203021	-0.477324	0.393321	0.728669	1.29019	0	0
1.91	-0.220504	1.44158	-1.22812	0.85712	-0.244734	0.93958	0.36588	-0.105737	-0.202974	0.686214	0.133109	0	0	-0.30142	0.0320226	-0.00524651	0	0.120934	0	0	-0.239911	-0.0135243	-0.254044	-0.0391674	-0.180129	0.0214653	0.410917	1.12057	0	0	-0.00998496	-0.481298	0.39126	0.734512	1.29132	0	0
1.92	-0.212946	1.4469	-1.23299	0.856215	-0.254452	0.937827	0.367556	-0.107143	-0.216879	0.618052	0.14007	0	0	-0.309044	0.0316483	-0.0034703	0	0.129479	0	0	-0.23721	-0.0168242	-0.254601	-0.0404922	-0.176573	0.0186246	0.410496	1.12194	0	0	0.000339411	-0.485066	0.389084	0.74063	1.29243	0	0
1.93	-0.201168	1.45239	-1.24314	0.855118	-0.264245	0.935859	0.368172	-0.107911	-0.230917	0.54853	0.147971	0	0	-0.31675	0.0317825	-0.00222432	0	0.138507	0	0	-0.234462	-0.0209226	-0.25398	-0.0420803	-0.173068	0.0160635	0.410274	1.12325	0	0	0.0103704	-0.488671	0.386894	0.746763	1.29402	0	0
1.94	-0.186358	1.45829	-1.25725	0.853851	-0.274076	0.9337	0.368265	-0.107672	-0.243622	0.478798	0.154992	0	0	-0.324013	0.032339	-0.00258788	0	0.147949	0	0	-0.231476	-0.0255411	-0.252074	-0.044129	-0.169581	0.0123522	0.410844	1.12448	0	0	0.0203924	-0.491886	0.384962	0.752808	1.29646	0	0
1.95	-0.168322	1.46451	-1.27577	0.852419	-0.283958	0.931389	0.367733	-0.106156	-0.253583	0.408972	0.158947	0	0	-0.3313	0.0333794	-0.00422026	0	0.157101	0	0	-0.228024	-0.0306257	-0.248853	-0.0460768	-0.166233	0.00752743	0.411644	1.12581	0	0	0.0303038	-0.494487	0.382739	0.758669	1.29931	0	0
1.96	-0.148836	1.46826	-1.29901	0.850885	-0.293534	0.929217	0.363037	-0.103645	-0.26248	0.337988	0.159484	0	0	-0.331549	0.0376078	-0.00215214	0	0.164735	0	0	-0.227336	-0.0347653	-0.243163	-0.0466577	-0.163587	0.00138524	0.413068	1.12693	0	0	0.0401751	-0.496282	0.380603	0.763982	1.30227	0	0
1.97	-0.118516	1.47382	-1.33144	0.849184	-0.303556	0.926747	0.358262	-0.0985785	-0.262778	0.267796	0.153061	0	0	-0.33927	0.0395824	-0.00539952	0	0.173316	0	0	-0.224229	-0.0407033	-0.237959	-0.0479289	-0.160656	-0.0045993	0.412545	1.12835	0	0	0.0500453	-0.497914	0.379141	0.768378	1.30511	0	0
1.98	-0.08658	1.47895	-1.36688	0.847385	-0.313746	0.924222	0.351192	-0.092366	-0.255621	0.198122	0.14261	0	0	-0.347569	0.0416528	-0.00968853	0	0.18175	0	0	-0.221147	-0.0463584	-0.231926	-0.0484831	-0.158335	-0.0100499	0.411177	1.13128	0	0	0.0586984	-0.498777	0.376525	0.77242	1.30848	0	0
1.99	-0.053199	1.48372	-1.40394	0.845733	-0.324089	0.921634	0.341835	-0.0860804	-0.241897	0.130877	0.129517	0	0	-0.356265	0.0436172	-0.0142167	0	0.190173	0	0	-0.217942	-0.05139	-0.226772	-0.048671	-0.156972	-0.0154826	0.410664	1.13615	0	0	0.0650875	-0.498856	0.371356	0.776571	1.31224	0	0
2	-0.0152237	1.48764	-1.44479	0.844114	-0.334768	0.919033	0.331773	-0.0813066	-0.226915	0.0722425	0.114505	0	0	-0.365705	0.0454746	-0.0188296	0	0.199246	0	0	-0.214692	-0.0559726	-0.222655	-0.0492592	-0.15627	-0.0219078	0.41103	1.14188	0	0	0.0704608	-0.49841	0.365979	0.779996	1.31601	0	0
2.01	0.0313186	1.49206	-1.49236	0.842542	-0.34617	0.916351	0.324206	-0.07938	-0.216255	0.0280591	0.100234	0	0	-0.383682	0.0436603	-0.0289373	0	0.210878	0	0	-0.209663	-0.0606459	-0.219705	-0.0509403	-0.155864	-0.0293088	0.411474	1.14796	0	0	0.0748141	-0.497274	0.360415	0.782631	1.31999	0	0
2.02	0.0579923	1.49224	-1.52	0.841255	-0.357252	0.914098	0.317317	-0.076821	-0.211479	0.00349614	0.0897951	0	0	-0.393536	0.042817	-0.0320596	0	0.221292	0	0	-0.20972	-0.0619595	-0.217153	-0.0518234	-0.156613	-0.0364957	0.413421	1.15402	0	0	0.0784728	-0.495259	0.35489	0.785682	1.32117	0	0
2.03	0.0713166	1.49029	-1.53293	0.840233	-0.368524	0.912153	0.312446	-0.075366	-0.214011	0	0.0862081	0	0	-0.404003	0.040294	-0.033616	0	0.231761	0	0	-0.211967	-0.0610809	-0.215665	-0.0527421	-0.157996	-0.0429755	0.415298	1.15957	0	0	0.0817205	-0.492225	0.349801	0.787745	1.32053	0	0
2.04	0.0693445	1.48629	-1.5293	0.839485	-0.380008	0.910528	0.309021	-0.0746353	-0.222244	0.01135	0.0873719	0	0	-0.413411	0.0359135	-0.0386553	0.0149182	0.24448	0	0	-0.21638	-0.0578065	-0.215291	-0.0534866	-0.159842	-0.0500783	0.41745	1.16537	0	0	0.0842785	-0.488114	0.344484	0.788953	1.31978	0	0
2.05	0.0537253	1.48102	-1.51114	0.838899	-0.391726	0.909156	0.307185	-0.0740449	-0.235067	0.0389248	0.0864893	0	0	-0.420372	0.0294132	-0.0485508	0.040528	0.260268	0	0	-0.221958	-0.0523176	-0.215932	-0.0541736	-0.161975	-0.0572981	0.420132	1.17185	0	0	0.0854575	-0.48325	0.338271	0.790228	1.31894	0	0
2.06	0.0377864	1.47568	-1.49272	0.838329	-0.403675	0.907846	0.307582	-0.0742352	-0.250681	0.076323	0.0816212	0	0	-0.425031	0.0221137	-0.0610327	0.0713036	0.276767	0	0	-0.227161	-0.0462577	-0.217158	-0.0544317	-0.164186	-0.0643983	0.422804	1.17872	0	0	0.0843668	-0.478244	0.331013	0.792665	1.31719	0	0
